<?xml version="1.0" encoding="UTF-8"?>
<svg width="12px" height="15px" viewBox="0 0 12 15" version="1.1" xmlns="http://www.w3.org/2000/svg" xmlns:xlink="http://www.w3.org/1999/xlink">
    <!-- Generator: Sketch 55 (78076) - https://sketchapp.com -->
    <title>Shape</title>
    <desc>Created with Sketch.</desc>
    <g id="Page-1" stroke="none" stroke-width="1" fill="none" fill-rule="evenodd">
        <g id="test" transform="translate(-979.000000, -546.000000)" fill="#FFFFFF" fill-rule="nonzero">
            <g id="cards" transform="translate(80.000000, 163.000000)">
                <g id="card" transform="translate(0.000000, 282.000000)">
                    <g id="badge" transform="translate(890.000000, 94.000000)">
                        <path d="M13.6731579,19.9584119 C13.6731579,20.6493667 14.2881077,21.2084119 15.0481579,21.2084119 C15.8082082,21.2084119 16.4231579,20.6493667 16.4231579,19.9584119 L13.6731579,19.9584119 Z M15.0502405,10.0870191 C16.9132405,10.0870191 18.4252405,11.5803524 18.4252405,13.4203524 L18.4252405,18.0870191 L11.6752405,18.0870191 L11.6752405,13.4203524 C11.6752405,11.5803524 13.1872405,10.0870191 15.0502405,10.0870191 Z M15,7 C14.4466667,7 14,7.4527027 14,8.01351351 L14,8.80405405 C11.9066667,9.26351351 10.3333333,11.1554054 10.3333333,13.4189189 L10.3333333,17.472973 L9,18.8243243 L9,19.5 L21,19.5 L21,18.8243243 L19.6666667,17.472973 L19.6666667,13.4189189 C19.6666667,11.1554054 18.0933333,9.26351351 16,8.80405405 L16,8.01351351 C16,7.4527027 15.5533333,7 15,7 Z" id="Shape" transform="translate(15.000000, 14.104206) rotate(-360.000000) translate(-15.000000, -14.104206) "></path>
                    </g>
                </g>
            </g>
        </g>
    </g>
</svg>