<?xml version="1.0" encoding="UTF-8"?>
<svg width="40px" height="40px" viewBox="0 0 40 40" version="1.1" xmlns="http://www.w3.org/2000/svg" xmlns:xlink="http://www.w3.org/1999/xlink">
    <!-- Generator: Sketch 55 (78076) - https://sketchapp.com -->
    <title>Shape</title>
    <desc>Created with Sketch.</desc>
    <g id="Page-1" stroke="none" stroke-width="1" fill="none" fill-rule="evenodd">
        <g id="test" transform="translate(-284.000000, -63.000000)" fill="#58329E" fill-rule="nonzero">
            <g id="Dashboard" transform="translate(79.000000, 43.000000)">
                <g id="reviews">
                    <path d="M245,24 C244.98,21.8 243.2,20 241,20 L209,20 C206.8,20 205,21.8 205,24 L205,48 C205,50.2 206.8,52 209,52 L237,52 L245,60 L245,24 Z M237,44 L213,44 L213,40 L237,40 L237,44 Z M237,38 L213,38 L213,34 L237,34 L237,38 Z M237,32 L213,32 L213,28 L237,28 L237,32 Z" id="Shape"></path>
                </g>
            </g>
        </g>
    </g>
</svg>