<?xml version="1.0" encoding="UTF-8"?>
<svg width="12px" height="17px" viewBox="0 0 12 17" version="1.1" xmlns="http://www.w3.org/2000/svg" xmlns:xlink="http://www.w3.org/1999/xlink">
    <!-- Generator: Sketch 55 (78076) - https://sketchapp.com -->
    <title>Shape</title>
    <desc>Created with Sketch.</desc>
    <g id="Page-1" stroke="none" stroke-width="1" fill="none" fill-rule="evenodd">
        <g id="test" transform="translate(-119.000000, -359.000000)" fill="#000000" fill-rule="nonzero">
            <g id="cards" transform="translate(80.000000, 163.000000)">
                <g id="card-green-copy-3" transform="translate(0.000000, 141.000000)">
                    <g id="card-copy-6">
                        <g id="card">
                            <g id="status" transform="translate(29.000000, 48.000000)">
                                <path d="M16,10.75 L16,13 L19,10 L16,7 L16,9.25 C12.685,9.25 10,11.935 10,15.25 C10,16.4275 10.345,17.5225 10.93,18.445 L12.025,17.35 C11.6875,16.7275 11.5,16.0075 11.5,15.25 C11.5,12.7675 13.5175,10.75 16,10.75 Z M21.07,12.055 L19.975,13.15 C20.305,13.78 20.5,14.4925 20.5,15.25 C20.5,17.7325 18.4825,19.75 16,19.75 L16,17.5 L13,20.5 L16,23.5 L16,21.25 C19.315,21.25 22,18.565 22,15.25 C22,14.0725 21.655,12.9775 21.07,12.055 L21.07,12.055 Z" id="Shape"></path>
                            </g>
                        </g>
                    </g>
                </g>
            </g>
        </g>
    </g>
</svg>