<?xml version="1.0" encoding="UTF-8"?>
<svg width="38px" height="38px" viewBox="0 0 38 38" version="1.1" xmlns="http://www.w3.org/2000/svg" xmlns:xlink="http://www.w3.org/1999/xlink">
    <!-- Generator: Sketch 55 (78076) - https://sketchapp.com -->
    <title>Path</title>
    <desc>Created with Sketch.</desc>
    <g id="Page-1" stroke="none" stroke-width="1" fill="none" fill-rule="evenodd">
        <g id="test" transform="translate(-813.000000, -60.000000)" fill="#58329E">
            <g id="Dashboard" transform="translate(79.000000, 43.000000)">
                <g id="updates" transform="translate(530.000000, 0.000000)">
                    <path d="M236.41526,22.58125 C232.969356,19.1375 228.24015,17 222.988118,17 C212.484053,17 204,25.5025 204,36 C204,46.4975 212.484053,55 222.988118,55 C231.852408,55 239.243277,48.94375 241.358349,40.75 L236.41526,40.75 C234.466542,46.28375 229.190744,50.25 222.988118,50.25 C215.121951,50.25 208.729206,43.86125 208.729206,36 C208.729206,28.13875 215.121951,21.75 222.988118,21.75 C226.933083,21.75 230.450281,23.38875 233.016886,25.9775 L225.364603,33.625 L242,33.625 L242,17 L236.41526,22.58125 Z" id="Path"></path>
                </g>
            </g>
        </g>
    </g>
</svg>